<mxfile host="app.diagrams.net" modified="2023-04-13T01:40:14.672Z" agent="Mozilla/5.0 (Windows NT 10.0; Win64; x64) AppleWebKit/537.36 (KHTML, like Gecko) Chrome/111.0.0.0 Safari/537.36" etag="fB4eLWbE8AKFM-ZgJln-" version="21.1.7" type="device">
  <diagram name="PÃ¡gina-1" id="cQrOpJ8rYeWk8kJ6Zh6D">
    <mxGraphModel dx="1734" dy="1344" grid="1" gridSize="10" guides="1" tooltips="1" connect="1" arrows="1" fold="1" page="0" pageScale="1" pageWidth="827" pageHeight="1169" math="0" shadow="0">
      <root>
        <mxCell id="0" />
        <mxCell id="1" parent="0" />
        <mxCell id="02K2QJqWkWTaOgCLWT1P-42" value="Curso" style="whiteSpace=wrap;html=1;align=center;" vertex="1" parent="1">
          <mxGeometry x="-340" y="-210" width="100" height="40" as="geometry" />
        </mxCell>
        <mxCell id="02K2QJqWkWTaOgCLWT1P-44" value="Disciplina" style="shape=ext;margin=3;double=1;whiteSpace=wrap;html=1;align=center;" vertex="1" parent="1">
          <mxGeometry x="-610" y="-70" width="100" height="40" as="geometry" />
        </mxCell>
        <mxCell id="02K2QJqWkWTaOgCLWT1P-49" value="Possui" style="shape=rhombus;perimeter=rhombusPerimeter;whiteSpace=wrap;html=1;align=center;" vertex="1" parent="1">
          <mxGeometry x="-350" y="-80" width="120" height="60" as="geometry" />
        </mxCell>
        <mxCell id="02K2QJqWkWTaOgCLWT1P-50" value="Gerencia" style="shape=rhombus;perimeter=rhombusPerimeter;whiteSpace=wrap;html=1;align=center;" vertex="1" parent="1">
          <mxGeometry x="-350" y="-350" width="120" height="60" as="geometry" />
        </mxCell>
        <mxCell id="02K2QJqWkWTaOgCLWT1P-57" value="Departamento" style="whiteSpace=wrap;html=1;align=center;" vertex="1" parent="1">
          <mxGeometry x="-340" y="-470" width="100" height="40" as="geometry" />
        </mxCell>
        <mxCell id="02K2QJqWkWTaOgCLWT1P-59" value="Aluno" style="whiteSpace=wrap;html=1;align=center;" vertex="1" parent="1">
          <mxGeometry x="-70" y="-70" width="100" height="40" as="geometry" />
        </mxCell>
        <mxCell id="02K2QJqWkWTaOgCLWT1P-62" value="" style="endArrow=none;html=1;rounded=0;exitX=0.5;exitY=1;exitDx=0;exitDy=0;entryX=0.5;entryY=0;entryDx=0;entryDy=0;" edge="1" parent="1" source="02K2QJqWkWTaOgCLWT1P-57" target="02K2QJqWkWTaOgCLWT1P-50">
          <mxGeometry relative="1" as="geometry">
            <mxPoint x="-300" y="-200" as="sourcePoint" />
            <mxPoint x="-140" y="-200" as="targetPoint" />
          </mxGeometry>
        </mxCell>
        <mxCell id="02K2QJqWkWTaOgCLWT1P-63" value="" style="endArrow=none;html=1;rounded=0;exitX=0.5;exitY=1;exitDx=0;exitDy=0;entryX=0.5;entryY=0;entryDx=0;entryDy=0;" edge="1" parent="1" source="02K2QJqWkWTaOgCLWT1P-50" target="02K2QJqWkWTaOgCLWT1P-42">
          <mxGeometry relative="1" as="geometry">
            <mxPoint x="-300" y="-200" as="sourcePoint" />
            <mxPoint x="-140" y="-200" as="targetPoint" />
          </mxGeometry>
        </mxCell>
        <mxCell id="02K2QJqWkWTaOgCLWT1P-64" value="" style="endArrow=none;html=1;rounded=0;exitX=0.5;exitY=1;exitDx=0;exitDy=0;entryX=0.5;entryY=0;entryDx=0;entryDy=0;" edge="1" parent="1" source="02K2QJqWkWTaOgCLWT1P-42" target="02K2QJqWkWTaOgCLWT1P-49">
          <mxGeometry relative="1" as="geometry">
            <mxPoint x="-300" y="-200" as="sourcePoint" />
            <mxPoint x="-290" y="-90" as="targetPoint" />
          </mxGeometry>
        </mxCell>
        <mxCell id="02K2QJqWkWTaOgCLWT1P-66" value="" style="endArrow=none;html=1;rounded=0;exitX=1;exitY=0.5;exitDx=0;exitDy=0;entryX=0;entryY=0.5;entryDx=0;entryDy=0;" edge="1" parent="1" source="02K2QJqWkWTaOgCLWT1P-44" target="02K2QJqWkWTaOgCLWT1P-49">
          <mxGeometry relative="1" as="geometry">
            <mxPoint x="-300" y="-200" as="sourcePoint" />
            <mxPoint x="-140" y="-200" as="targetPoint" />
          </mxGeometry>
        </mxCell>
        <mxCell id="02K2QJqWkWTaOgCLWT1P-67" value="" style="endArrow=none;html=1;rounded=0;exitX=1;exitY=0.5;exitDx=0;exitDy=0;entryX=0;entryY=0.5;entryDx=0;entryDy=0;" edge="1" parent="1" source="02K2QJqWkWTaOgCLWT1P-49" target="02K2QJqWkWTaOgCLWT1P-59">
          <mxGeometry relative="1" as="geometry">
            <mxPoint x="-300" y="-200" as="sourcePoint" />
            <mxPoint x="-140" y="-200" as="targetPoint" />
          </mxGeometry>
        </mxCell>
        <mxCell id="02K2QJqWkWTaOgCLWT1P-68" value="(1,1)" style="text;strokeColor=none;fillColor=none;spacingLeft=4;spacingRight=4;overflow=hidden;rotatable=0;points=[[0,0.5],[1,0.5]];portConstraint=eastwest;fontSize=12;whiteSpace=wrap;html=1;" vertex="1" parent="1">
          <mxGeometry x="-280" y="-430" width="40" height="30" as="geometry" />
        </mxCell>
        <mxCell id="02K2QJqWkWTaOgCLWT1P-69" value="(1,n)" style="text;strokeColor=none;fillColor=none;spacingLeft=4;spacingRight=4;overflow=hidden;rotatable=0;points=[[0,0.5],[1,0.5]];portConstraint=eastwest;fontSize=12;whiteSpace=wrap;html=1;" vertex="1" parent="1">
          <mxGeometry x="-280" y="-250" width="40" height="30" as="geometry" />
        </mxCell>
        <mxCell id="02K2QJqWkWTaOgCLWT1P-70" value="(1,1)" style="text;strokeColor=none;fillColor=none;spacingLeft=4;spacingRight=4;overflow=hidden;rotatable=0;points=[[0,0.5],[1,0.5]];portConstraint=eastwest;fontSize=12;whiteSpace=wrap;html=1;" vertex="1" parent="1">
          <mxGeometry x="-340" y="-170" width="40" height="30" as="geometry" />
        </mxCell>
        <mxCell id="02K2QJqWkWTaOgCLWT1P-71" value="(1,1)" style="text;strokeColor=none;fillColor=none;spacingLeft=4;spacingRight=4;overflow=hidden;rotatable=0;points=[[0,0.5],[1,0.5]];portConstraint=eastwest;fontSize=12;whiteSpace=wrap;html=1;" vertex="1" parent="1">
          <mxGeometry x="-110" y="-90" width="40" height="30" as="geometry" />
        </mxCell>
        <mxCell id="02K2QJqWkWTaOgCLWT1P-72" value="(1,n)" style="text;strokeColor=none;fillColor=none;spacingLeft=4;spacingRight=4;overflow=hidden;rotatable=0;points=[[0,0.5],[1,0.5]];portConstraint=eastwest;fontSize=12;whiteSpace=wrap;html=1;" vertex="1" parent="1">
          <mxGeometry x="-510" y="-90" width="40" height="30" as="geometry" />
        </mxCell>
        <mxCell id="02K2QJqWkWTaOgCLWT1P-74" value="(1,n)" style="text;strokeColor=none;fillColor=none;spacingLeft=4;spacingRight=4;overflow=hidden;rotatable=0;points=[[0,0.5],[1,0.5]];portConstraint=eastwest;fontSize=12;whiteSpace=wrap;html=1;" vertex="1" parent="1">
          <mxGeometry x="-270" y="-170" width="40" height="30" as="geometry" />
        </mxCell>
      </root>
    </mxGraphModel>
  </diagram>
</mxfile>
